<svg xmlns="http://www.w3.org/2000/svg" viewBox="0 0 198.64 198.64"  fill="#473555" xmlns:v="https://vecta.io/nano"><path d="M59.42 99.77l-.04 35.59c-.07 5.7 4.44 10.61 10.51 10.58l57.34-.03c6.06 0 10.45-4.41 10.45-10.5v-71.4c0-5.96-4.41-10.42-10.29-10.42H69.6c-5.79 0-10.17 4.41-10.17 10.26l-.01 35.92zm74.87-.03v35.24c0 4.7-2.76 7.51-7.38 7.51H70.14c-4.59 0-7.38-2.8-7.38-7.4V64.38c0-4.55 2.8-7.39 7.28-7.39h57c4.47 0 7.26 2.85 7.26 7.4l-.01 35.35zm-36.81 14.33h30.07c1.6 0 2.52-1.26 1.77-2.48-.26-.42-.84-.68-1.33-.89-.28-.13-.67-.03-1-.03H67.87c-.23 0-.45-.01-.68 0-1.11.04-1.82.71-1.82 1.72 0 1.02.69 1.68 1.83 1.69l30.28-.01zm-.11-12.06H67.75c-.3 0-.61-.03-.9.01-.89.13-1.43.65-1.49 1.57-.07.98.47 1.57 1.37 1.8.32.08.67.03 1.01.03h59.35c.34 0 .68.04 1.01-.02.93-.18 1.49-.79 1.45-1.74-.04-.92-.57-1.54-1.54-1.64-.3-.03-.6-.01-.9-.01H97.37zm.1-8.66H68.08c-.38 0-.75-.02-1.13.01-.96.08-1.52.61-1.59 1.58-.07.93.55 1.68 1.49 1.81.3.04.6.02.9.02h59.34c.3 0 .6.03.9-.01.92-.12 1.62-.92 1.58-1.78-.04-.91-.71-1.6-1.7-1.62l-5.63-.02-24.77.01z"/><path d="M68.88 68.57c-2.29 1.91-2.29 1.91-.02 4.06l-.47 1.11c-.54 1.24-.14 2.09 1.18 2.08 1.16-.01 1.18.55 1.51 1.49 1.02 2.93.34 5.89.59 8.82.03.3.18.75.39.82.23.08.66-.1.87-.31l3.27-3.51 3.09 3.35c.26.26.69.35 1.03.52.13-.36.37-.72.38-1.08l.05-4.88c.12-1.57.44-3.14.73-4.69.03-.19.41-.4.65-.44 2.45-.37 2.53-.49 1.54-2.85-.06-.14-.08-.29-.14-.49l.97-.74c1.08-.81 1.14-1.7 0-2.42-.94-.58-.97-1.1-.49-2 .61-1.17.17-1.93-1.11-1.99-1.01-.05-1.57-.3-1.54-1.51.04-1.29-.8-1.8-1.94-1.17-.98.54-1.49.36-2.07-.56-.71-1.14-1.55-1.14-2.28.01-.59.93-1.1 1.07-2.07.55-1.17-.64-1.94-.1-1.97 1.29-.02.86-.23 1.31-1.18 1.38-1.79.13-2.07.68-1.33 2.33l.36.83zm7.38-5.84c.85 1.91 2.09 2.29 3.7 1.05.24.87.23 1.82.7 2.29.46.47 1.4.47 2.25.71-1.12 1.6-.85 2.9 1.22 3.79-2 .91-2.45 2.15-1.16 3.79-.86.24-1.79.25-2.28.72-.47.46-.48 1.4-.69 2.09-.75-.16-1.58-.59-2.21-.39s-1.06 1.03-1.47 1.46c-.64-.58-1.12-1.34-1.75-1.49-.66-.16-1.45.28-2.36.5.37-2.14-.87-2.79-2.94-2.71 1.51-1.86.87-3.05-1.03-3.99 2.21-.87 2.29-2.21 1.08-4.03 2.42.48 3.05-.78 2.95-2.67 2.38.85 2.38.85 3.99-1.12zm-2.01 15.3c1.79 2.21 1.79 2.21 4.08-.14.39.32 1.12.64 1.15 1 .12 1.9.06 3.8.06 5.77-.25-.09-.33-.1-.38-.15l-1.92-1.91c-1.01-1.01-1.06-1.01-2.05-.03l-2.28 2.25-.02-4.97c-.07-1.03.17-1.7 1.36-1.82zm40.94 44.7h12.26c1.35 0 2.09-.58 2.12-1.63.03-1.07-.81-1.78-2.14-1.78-8.14-.01-16.27-.01-24.41 0-1.47 0-2.2.65-2.13 1.86.06 1.06.65 1.55 1.92 1.55h12.38z"/><path d="M119.34 132.49h8.21c1.22 0 1.98-.63 2.02-1.64.04-1.06-.74-1.77-2.03-1.77a4559.53 4559.53 0 0 0-16.54 0c-1.2 0-1.93.67-1.93 1.72s.71 1.68 1.94 1.69h8.33zM76.15 64.7c-3.26.01-5.84 2.63-5.83 5.93.01 3.25 2.7 5.94 5.9 5.91 3.23-.03 5.82-2.69 5.82-5.98a5.83 5.83 0 0 0-5.89-5.86zm.1 10.49c-2.58.01-4.71-2.08-4.69-4.61.02-2.48 2.12-4.63 4.57-4.69 2.43-.06 4.7 2.21 4.69 4.69-.01 2.52-2.07 4.6-4.57 4.61z"/></svg>